<svg xmlns:xlink="http://www.w3.org/1999/xlink"  id="Livello_1" data-name="Livello 1" xmlns="http://www.w3.org/2000/svg" version="1.1" viewBox="0 0 200 60">
  <defs>
    <linearGradient id="myGradient" gradientTransform="rotate(143)">
      <stop offset="5%" stop-color="#4a69eb" />
      <stop offset="95%" stop-color="#f5f3f3" />
    </linearGradient>
    <style>
      .cls-1 {
        fill: url('#myGradient');
        stroke-width: 0px;
      }
    </style>
  </defs>
  <path class="cls-1" d="M111.8,14.6h-5.8c-3.2,0-5.8,2.6-5.8,5.8s2.6,5.8,5.8,5.8h5.8c1.1,0,1.9.9,1.9,1.9s-.9,1.9-1.9,1.9h-20.6c-.2,0-.4,0-.6,0-3.2,0-5.8,2.6-5.8,5.8s2.6,5.8,5.8,5.8.4,0,.6,0h0s20.6,0,20.6,0c7.4,0,13.5-6,13.5-13.5s-6-13.5-13.5-13.5Z"></path>
  <path class="cls-1" d="M68.3,20.4c0-3.2-2.6-5.8-5.8-5.8h0c-5.4,0-10.8,2.1-15,6.2h0s0,0,0,0l-6.4,6.4c-1.9,1.9-4.3,2.8-6.8,2.8h-5.8c-1.1,0-1.9-.9-1.9-1.9s.9-1.9,1.9-1.9h5.8c3.2,0,5.8-2.6,5.8-5.8s-2.6-5.8-5.8-5.8h-5.8c-7.4,0-13.5,6-13.5,13.5s6,13.5,13.5,13.5h5.8s0,0,0,0c5.4,0,10.8-2.1,15-6.2l6.4-6.4c1.9-1.9,4.3-2.8,6.8-2.8s5.8-2.6,5.8-5.8Z"></path>
  <path class="cls-1" d="M96.4,20.4c0-3.2-2.6-5.8-5.8-5.8h0c-5.4,0-10.8,2.1-15,6.2h0s0,0,0,0l-6.4,6.4c-1.9,1.9-4.3,2.8-6.8,2.8s-5.8,2.6-5.8,5.8,2.6,5.8,5.8,5.8,0,0,0,0c5.4,0,10.8-2.1,15-6.2l6.4-6.4c1.9-1.9,4.3-2.8,6.8-2.8s5.8-2.6,5.8-5.8Z"></path>
  <path class="cls-1" d="M141.7,14.6c-7.4,0-13.5,6-13.5,13.5v7.7c0,3.2,2.6,5.8,5.8,5.8s5.8-2.6,5.8-5.8h3.8c0,3.2,2.6,5.8,5.8,5.8s5.8-2.6,5.8-5.8v-7.7c0-7.4-6-13.5-13.5-13.5ZM143.7,30h-3.8v-1.9c0-1.1.9-1.9,1.9-1.9s1.9.9,1.9,1.9v1.9Z"></path>
  <path class="cls-1" d="M179.2,14.6c-3.2,0-5.8,2.6-5.8,5.8v5.8c0,1.1-.9,1.9-1.9,1.9s-1.9-.9-1.9-1.9h0v-5.8c0-3.2-2.6-5.8-5.8-5.8s-5.8,2.6-5.8,5.8v5.8h0c0,5.4,3.1,10,7.7,12.2v1.3c0,3.2,2.6,5.8,5.8,5.8s5.8-2.6,5.8-5.8v-1.3c4.5-2.2,7.7-6.8,7.7-12.2v-5.8c0-3.2-2.6-5.8-5.8-5.8Z"></path>
</svg>